<svg id="svg" version="1.1" xmlns="http://www.w3.org/2000/svg" xmlns:xlink="http://www.w3.org/1999/xlink" width="400" height="400" viewBox="0, 0, 400,400"><g id="svgg"><path id="path0" d="M286.694 63.300 C 291.016 68.817,312.531 97.892,312.785 98.560 C 313.140 99.494,226.516 161.028,224.186 161.497 C 223.546 161.625,216.253 154.363,189.986 127.441 L 156.600 93.222 153.982 95.911 C 115.030 135.913,43.760 209.432,43.645 209.728 C 43.343 210.510,45.142 209.339,93.490 177.272 C 129.353 153.487,142.649 144.867,143.390 144.924 C 144.162 144.983,152.911 153.788,180.428 182.201 C 200.243 202.660,216.601 219.362,216.781 219.316 C 216.960 219.269,243.897 200.113,276.642 176.746 C 316.902 148.016,336.525 134.240,337.252 134.197 C 338.271 134.136,338.820 135.039,347.863 151.634 C 353.109 161.260,357.513 169.015,357.652 168.868 C 357.958 168.542,376.545 80.003,376.343 79.833 C 376.151 79.671,287.476 62.800,286.819 62.800 C 286.463 62.800,286.424 62.956,286.694 63.300 M337.200 269.200 L 337.200 347.200 355.800 347.200 L 374.400 347.200 374.400 269.200 L 374.400 191.200 355.800 191.200 L 337.200 191.200 337.200 269.200 M372.400 269.200 L 372.400 338.000 356.000 338.000 L 339.600 338.000 339.600 269.200 L 339.600 200.400 356.000 200.400 L 372.400 200.400 372.400 269.200 M79.200 279.000 L 79.200 347.200 97.800 347.200 L 116.400 347.200 116.400 279.000 L 116.400 210.800 97.800 210.800 L 79.200 210.800 79.200 279.000 M34.514 217.000 C 34.517 218.100,34.595 218.503,34.687 217.895 C 34.779 217.286,34.777 216.386,34.682 215.895 C 34.587 215.403,34.511 215.900,34.514 217.000 M143.200 282.600 L 143.200 347.200 161.800 347.200 L 180.400 347.200 180.400 282.600 L 180.400 218.000 161.800 218.000 L 143.200 218.000 143.200 282.600 M274.000 282.600 L 274.000 347.200 292.600 347.200 L 311.200 347.200 311.200 282.600 L 311.200 218.000 292.600 218.000 L 274.000 218.000 274.000 282.600 M114.400 279.200 L 114.400 339.200 98.000 339.200 L 81.600 339.200 81.600 279.200 L 81.600 219.200 98.000 219.200 L 114.400 219.200 114.400 279.200 M178.400 282.600 L 178.400 339.600 162.000 339.600 L 145.600 339.600 145.600 282.600 L 145.600 225.600 162.000 225.600 L 178.400 225.600 178.400 282.600 M308.800 282.600 L 308.800 339.600 292.400 339.600 L 276.000 339.600 276.000 282.600 L 276.000 225.600 292.400 225.600 L 308.800 225.600 308.800 282.600 M210.000 295.000 L 210.000 347.200 228.600 347.200 L 247.200 347.200 247.200 295.000 L 247.200 242.800 228.600 242.800 L 210.000 242.800 210.000 295.000 M244.800 294.800 L 244.800 340.800 228.400 340.800 L 212.000 340.800 212.000 294.800 L 212.000 248.800 228.400 248.800 L 244.800 248.800 244.800 294.800 M18.000 303.800 L 18.000 347.200 36.600 347.200 L 55.200 347.200 55.200 303.800 L 55.200 260.400 36.600 260.400 L 18.000 260.400 18.000 303.800 M52.800 303.800 L 52.800 342.000 36.400 342.000 L 20.000 342.000 20.000 303.800 L 20.000 265.600 36.400 265.600 L 52.800 265.600 52.800 303.800 " stroke="none" fill="#fbfbfb" fill-rule="evenodd"></path><path id="path1" d="M164.800 101.725 C 164.800 101.794,165.385 102.379,166.100 103.025 L 167.400 104.200 166.225 102.900 C 165.130 101.688,164.800 101.416,164.800 101.725 " stroke="none" fill="#e0c176" fill-rule="evenodd"></path><path id="path2" d="M282.801 60.599 C 282.384 61.101,284.542 64.184,296.174 79.699 C 303.802 89.875,310.046 98.353,310.049 98.539 C 310.052 98.726,292.177 111.416,270.327 126.741 C 248.477 142.065,229.140 155.632,227.356 156.890 L 224.112 159.176 190.763 125.017 C 168.583 102.298,157.267 90.978,156.977 91.219 C 156.715 91.436,156.389 91.429,156.161 91.201 C 155.921 90.961,142.825 104.164,120.590 127.064 C 101.236 146.998,74.015 174.934,60.100 189.145 L 34.800 214.981 34.800 216.891 C 34.800 217.941,34.981 218.800,35.201 218.800 C 35.422 218.800,59.631 202.780,88.999 183.201 C 118.367 163.621,142.550 147.556,142.740 147.501 C 142.929 147.445,159.348 164.289,179.227 184.930 C 207.835 214.636,215.541 222.426,216.185 222.294 C 216.633 222.203,243.460 203.241,275.800 180.156 C 308.140 157.072,335.143 137.800,335.807 137.331 L 337.014 136.478 346.907 154.579 C 352.348 164.534,356.800 172.956,356.800 173.293 C 356.800 173.973,358.687 174.506,359.045 173.928 C 359.169 173.727,360.051 169.656,361.005 164.881 C 361.959 160.107,366.353 139.030,370.770 118.044 C 379.414 76.972,379.035 78.975,378.300 78.247 C 377.869 77.820,285.721 59.999,283.949 60.000 C 283.591 60.000,283.074 60.270,282.801 60.599 M332.388 71.224 C 356.692 75.854,376.608 79.678,376.648 79.721 C 376.687 79.765,372.708 98.880,367.805 122.200 C 362.902 145.520,358.677 165.635,358.417 166.900 C 358.156 168.165,357.791 169.200,357.604 169.200 C 357.418 169.200,353.009 161.389,347.807 151.842 C 340.330 138.120,338.163 134.448,337.468 134.315 C 336.802 134.188,321.986 144.577,276.794 176.860 C 243.907 200.352,216.872 219.579,216.715 219.586 C 216.559 219.594,200.200 202.850,180.361 182.378 C 160.149 161.519,144.073 145.240,143.795 145.347 C 143.521 145.452,143.141 145.390,142.949 145.210 C 142.757 145.030,120.550 159.502,93.600 177.369 C 44.417 209.976,42.857 210.984,43.554 209.691 C 43.907 209.037,140.119 109.781,151.366 98.469 L 156.666 93.138 190.019 127.265 C 215.576 153.416,223.559 161.360,224.177 161.255 C 225.396 161.049,312.800 99.606,312.800 98.956 C 312.800 98.645,306.860 90.475,299.600 80.800 C 286.184 62.921,285.713 62.224,287.300 62.595 C 287.795 62.710,308.085 66.594,332.388 71.224 M339.600 269.200 L 339.600 338.000 356.000 338.000 L 372.400 338.000 372.400 269.200 L 372.400 200.400 356.000 200.400 L 339.600 200.400 339.600 269.200 M33.241 216.842 C 32.411 217.519,32.343 217.756,32.733 218.612 C 33.542 220.387,34.693 219.642,34.402 217.530 L 34.200 216.061 33.241 216.842 M81.600 279.200 L 81.600 339.200 98.000 339.200 L 114.400 339.200 114.400 279.200 L 114.400 219.200 98.000 219.200 L 81.600 219.200 81.600 279.200 M145.600 282.600 L 145.600 339.600 162.000 339.600 L 178.400 339.600 178.400 282.600 L 178.400 225.600 162.000 225.600 L 145.600 225.600 145.600 282.600 M276.000 282.600 L 276.000 339.600 292.400 339.600 L 308.800 339.600 308.800 282.600 L 308.800 225.600 292.400 225.600 L 276.000 225.600 276.000 282.600 M212.000 294.800 L 212.000 340.800 228.400 340.800 L 244.800 340.800 244.800 294.800 L 244.800 248.800 228.400 248.800 L 212.000 248.800 212.000 294.800 M20.000 303.800 L 20.000 342.000 36.400 342.000 L 52.800 342.000 52.800 303.800 L 52.800 265.600 36.400 265.600 L 20.000 265.600 20.000 303.800 " stroke="none" fill="#cc941c" fill-rule="evenodd"></path><path id="path3" d="M162.783 99.700 C 164.441 101.466,164.800 101.784,164.800 101.483 C 164.800 101.419,163.945 100.564,162.900 99.583 L 161.000 97.800 162.783 99.700 M149.781 100.100 L 148.200 101.800 149.900 100.219 C 151.481 98.748,151.784 98.400,151.481 98.400 C 151.416 98.400,150.651 99.165,149.781 100.100 M136.181 114.100 L 134.600 115.800 136.300 114.219 C 137.881 112.748,138.184 112.400,137.881 112.400 C 137.816 112.400,137.051 113.165,136.181 114.100 M179.800 117.200 C 180.883 118.300,181.860 119.200,181.970 119.200 C 182.080 119.200,181.283 118.300,180.200 117.200 C 179.117 116.100,178.140 115.200,178.030 115.200 C 177.920 115.200,178.717 116.100,179.800 117.200 M122.581 128.100 L 121.000 129.800 122.700 128.219 C 124.281 126.748,124.584 126.400,124.281 126.400 C 124.216 126.400,123.451 127.165,122.581 128.100 M196.600 134.400 C 197.683 135.500,198.660 136.400,198.770 136.400 C 198.880 136.400,198.083 135.500,197.000 134.400 C 195.917 133.300,194.940 132.400,194.830 132.400 C 194.720 132.400,195.517 133.300,196.600 134.400 M108.981 142.100 L 107.400 143.800 109.100 142.219 C 110.681 140.748,110.984 140.400,110.681 140.400 C 110.616 140.400,109.851 141.165,108.981 142.100 M148.400 149.400 C 149.146 150.170,149.847 150.800,149.957 150.800 C 150.067 150.800,149.546 150.170,148.800 149.400 C 148.054 148.630,147.353 148.000,147.243 148.000 C 147.133 148.000,147.654 148.630,148.400 149.400 M213.583 151.700 C 215.241 153.466,215.600 153.784,215.600 153.483 C 215.600 153.419,214.745 152.564,213.700 151.583 L 211.800 149.800 213.583 151.700 M95.381 156.100 L 93.800 157.800 95.500 156.219 C 96.435 155.349,97.200 154.584,97.200 154.519 C 97.200 154.216,96.852 154.519,95.381 156.100 M160.800 162.200 C 161.546 162.970,162.247 163.600,162.357 163.600 C 162.467 163.600,161.946 162.970,161.200 162.200 C 160.454 161.430,159.753 160.800,159.643 160.800 C 159.533 160.800,160.054 161.430,160.800 162.200 M81.781 170.100 L 80.200 171.800 81.900 170.219 C 83.481 168.748,83.784 168.400,83.481 168.400 C 83.416 168.400,82.651 169.165,81.781 170.100 M173.200 175.000 C 173.946 175.770,174.647 176.400,174.757 176.400 C 174.867 176.400,174.346 175.770,173.600 175.000 C 172.854 174.230,172.153 173.600,172.043 173.600 C 171.933 173.600,172.454 174.230,173.200 175.000 M68.181 184.100 L 66.600 185.800 68.300 184.219 C 69.881 182.748,70.184 182.400,69.881 182.400 C 69.816 182.400,69.051 183.165,68.181 184.100 M185.200 187.400 C 185.946 188.170,186.647 188.800,186.757 188.800 C 186.867 188.800,186.346 188.170,185.600 187.400 C 184.854 186.630,184.153 186.000,184.043 186.000 C 183.933 186.000,184.454 186.630,185.200 187.400 M54.581 198.100 L 53.000 199.800 54.700 198.219 C 56.281 196.748,56.584 196.400,56.281 196.400 C 56.216 196.400,55.451 197.165,54.581 198.100 M197.600 200.200 C 198.346 200.970,199.047 201.600,199.157 201.600 C 199.267 201.600,198.746 200.970,198.000 200.200 C 197.254 199.430,196.553 198.800,196.443 198.800 C 196.333 198.800,196.854 199.430,197.600 200.200 M210.000 213.000 C 210.746 213.770,211.447 214.400,211.557 214.400 C 211.667 214.400,211.146 213.770,210.400 213.000 C 209.654 212.230,208.953 211.600,208.843 211.600 C 208.733 211.600,209.254 212.230,210.000 213.000 " stroke="none" fill="#e6cc96" fill-rule="evenodd"></path><path id="path4" d="M144.981 104.900 L 143.400 106.600 145.100 105.019 C 146.681 103.548,146.984 103.200,146.681 103.200 C 146.616 103.200,145.851 103.965,144.981 104.900 M169.000 106.000 C 170.083 107.100,171.060 108.000,171.170 108.000 C 171.280 108.000,170.483 107.100,169.400 106.000 C 168.317 104.900,167.340 104.000,167.230 104.000 C 167.120 104.000,167.917 104.900,169.000 106.000 M131.381 118.900 L 129.800 120.600 131.500 119.019 C 133.081 117.548,133.384 117.200,133.081 117.200 C 133.016 117.200,132.251 117.965,131.381 118.900 M185.800 123.200 C 186.883 124.300,187.860 125.200,187.970 125.200 C 188.080 125.200,187.283 124.300,186.200 123.200 C 185.117 122.100,184.140 121.200,184.030 121.200 C 183.920 121.200,184.717 122.100,185.800 123.200 M117.781 132.900 L 116.200 134.600 117.900 133.019 C 119.481 131.548,119.784 131.200,119.481 131.200 C 119.416 131.200,118.651 131.965,117.781 132.900 M202.600 140.400 C 203.683 141.500,204.660 142.400,204.770 142.400 C 204.880 142.400,204.083 141.500,203.000 140.400 C 201.917 139.300,200.940 138.400,200.830 138.400 C 200.720 138.400,201.517 139.300,202.600 140.400 M104.181 146.900 L 102.600 148.600 104.300 147.019 C 105.881 145.548,106.184 145.200,105.881 145.200 C 105.816 145.200,105.051 145.965,104.181 146.900 M219.400 157.600 C 220.483 158.700,221.460 159.600,221.570 159.600 C 221.680 159.600,220.883 158.700,219.800 157.600 C 218.717 156.500,217.740 155.600,217.630 155.600 C 217.520 155.600,218.317 156.500,219.400 157.600 M156.400 157.800 C 157.146 158.570,157.847 159.200,157.957 159.200 C 158.067 159.200,157.546 158.570,156.800 157.800 C 156.054 157.030,155.353 156.400,155.243 156.400 C 155.133 156.400,155.654 157.030,156.400 157.800 M90.581 160.900 L 89.000 162.600 90.700 161.019 C 92.281 159.548,92.584 159.200,92.281 159.200 C 92.216 159.200,91.451 159.965,90.581 160.900 M168.800 170.600 C 169.546 171.370,170.247 172.000,170.357 172.000 C 170.467 172.000,169.946 171.370,169.200 170.600 C 168.454 169.830,167.753 169.200,167.643 169.200 C 167.533 169.200,168.054 169.830,168.800 170.600 M76.981 174.900 L 75.400 176.600 77.100 175.019 C 78.681 173.548,78.984 173.200,78.681 173.200 C 78.616 173.200,77.851 173.965,76.981 174.900 M181.000 183.200 C 181.859 184.080,182.652 184.800,182.762 184.800 C 182.872 184.800,182.259 184.080,181.400 183.200 C 180.541 182.320,179.748 181.600,179.638 181.600 C 179.528 181.600,180.141 182.320,181.000 183.200 M63.381 188.900 L 61.800 190.600 63.500 189.019 C 65.081 187.548,65.384 187.200,65.081 187.200 C 65.016 187.200,64.251 187.965,63.381 188.900 M193.200 195.800 C 193.946 196.570,194.647 197.200,194.757 197.200 C 194.867 197.200,194.346 196.570,193.600 195.800 C 192.854 195.030,192.153 194.400,192.043 194.400 C 191.933 194.400,192.454 195.030,193.200 195.800 M49.781 202.900 L 48.200 204.600 49.900 203.019 C 51.481 201.548,51.784 201.200,51.481 201.200 C 51.416 201.200,50.651 201.965,49.781 202.900 M205.600 208.600 C 206.346 209.370,207.047 210.000,207.157 210.000 C 207.267 210.000,206.746 209.370,206.000 208.600 C 205.254 207.830,204.553 207.200,204.443 207.200 C 204.333 207.200,204.854 207.830,205.600 208.600 " stroke="none" fill="#dab454" fill-rule="evenodd"></path></g></svg>