<?xml version="1.0" encoding="utf-8"?>
<!-- Generator: Adobe Illustrator 24.1.2, SVG Export Plug-In . SVG Version: 6.00 Build 0)  -->
<svg version="1.1" id="Camada_1" xmlns="http://www.w3.org/2000/svg" xmlns:xlink="http://www.w3.org/1999/xlink" x="0px" y="0px"
	 viewBox="0 0 1920 1080" style="enable-background:new 0 0 1920 1080;" xml:space="preserve">
<style type="text/css">
	.st0{fill:#CC9933;stroke:url(#SVGID_1_);stroke-miterlimit:10;}
	.st1{fill:#CC9933;stroke:url(#SVGID_2_);stroke-miterlimit:10;}
	.st2{fill:#CC9933;stroke:url(#SVGID_3_);stroke-miterlimit:10;}
	.st3{stroke:#000000;stroke-width:0.5;stroke-miterlimit:10;}
	.st4{fill:#FFFFFF;}
</style>
<g>
	<linearGradient id="SVGID_1_" gradientUnits="userSpaceOnUse" x1="448.0245" y1="505.4991" x2="1624.8901" y2="505.4991">
		<stop  offset="0" style="stop-color:#FFFFFF"/>
		<stop  offset="1" style="stop-color:#000000"/>
	</linearGradient>
	<path class="st0" d="M1508.43,547.84c-5.36-2.09-11.75-4.03-11.26-11.43c0.48-7.19,6.91-8.94,12.43-10.43
		c19.1-5.17,38.15-10.71,57.52-14.67c26.93-5.5,44.41-21.64,56.26-45.72c-36.88,31.1-79.69,31.66-124.83,30.49
		c-22.65-0.59-34.12-6.85-40.72-26.3c-6.42-18.94-19.86-31.56-34.83-44.17c-38.23-32.18-74.47-66.35-92.1-115.32
		c-10.25-28.46-34-48.36-49.39-73.8c-0.18-0.13-1.05-0.83-0.54-0.42s0.51,0.41,0.51,0.41c-2-2-3.11-3.32-3.44-3.77
		c-5.06-6.9-9.85-12.6-16.39-18.09c-3.14-2.64-5.91-5.75-9.28-8.1c-2.46-1.71-4.84-2.83-7.09-4.39c-0.89-0.16-0.55-0.57-1.29-1.16
		c-0.48-0.38-2.14-0.68-2.57-1.04c-56.67-26.25-127.63-19.85-189.59,27.23c-25.1,19.07-50.83,37.35-80.68,48.98
		c-101.5,39.56-205.37,71.22-311.85,94.12c-19.75,4.25-38.21,10.76-55.26,21.61c-37.2,23.67-92,20.33-125.58-7.4
		c-20.74-17.13-21.19-40.24-0.06-56.91c11.03-8.7,23.98-14.92,35.41-23.17c31.2-22.53,33.43-56.57,5.33-82.61
		c-12.09-11.2-24.9-21.59-33.11-36.94c-21.63,25.9-22.26,53.87-4.7,72.5c8.58,9.1,30.16,6.89,26.72,24.6
		c-2.52,12.93-19.92,16.49-28.53,26.66c-3.21,3.79-6.76,7.42-10.66,10.48c-24.42,19.25-23.83,42.35-13.91,69.35
		c9.62,26.18,25.88,38.75,53.71,39.07c14.8,0.17,29.6,3.53,44.32,5.93c17.29,2.81,20.33,12.27,11.4,26.52
		c-3.97,6.33-8.58,12.28-12.3,18.74c-29.09,50.67-20.53,99.03,20.17,140.27c26.12,26.47,67.26,32.98,84.11,72.93
		c13.97,33.12,52.46,44.04,80.13,64.66c12.51,9.32,18.25,16.58,9.82,32.6c-11.4,21.65-0.63,37.07,24.08,37.25
		c24.94,0.18,49.89-0.05,74.83-0.46c7.99-0.13,18.02,2.58,22.24-6.92c4.58-10.32-0.3-19.3-7.85-26.89
		c-8.84-8.9-19.02-18.06-20.32-30.69c-3.12-30.41-19.38-52.01-41.32-71.31c-12.16-10.7-16.6-24.88-9.22-40.63
		c6.98-14.9,18.58-23.26,35.52-22.4c8.27,0.42,16.56,1.33,24.71,2.75c38.35,6.69,76.55,12.39,115.88,8.54
		c22.2-2.17,45.01-1.62,67.23,0.67c28.22,2.9,55.25-2.37,80.07-13.03c21.52-9.24,21.21-2.64,19.77,15.22
		c-3.55,44.25,1.59,52.2,39.87,70.84c8.21,4,16.47,7.91,24.53,12.2c9.9,5.28,13.15,12.09,4.88,21.83
		c-23.31,27.46-12.19,46.03,21.84,59.39c10.04,3.95,20.17,7.7,30.14,11.81c16.5,6.8,24.76,3.17,25.26-16.41
		c0.42-16.48,2.09-33.41,6.55-49.19c7.64-27.06-1.32-46.83-21.61-63.83c-21.82-18.28-36.49-77.05-24.74-102.66
		c12.06-26.29,24.33-52.34,32.41-80.29c2.56-8.84,4.5-19.44,16.22-25.87c2.31,22.47-7.52,41.27-10.35,61.12
		c-1.71,12.04-23.13,37.89,15.84,28.1c1.84-0.46,5.49,1.3,6.45,3.05c12.15,22.13,36.13,38.14,36.11,66.45
		c-0.01,18.77,6.95,35.74,10.89,53.49c4.2,18.93,17.65,24.52,35.1,25.02c20.05,0.58,46.61,3.95,51.01-19.24
		c6.62-34.88,23.7-64.46,35.32-96.66c5.73-15.89,11.28-21.31,29.81-19.73c44.6,3.8,85.56-5.61,113.52-50.47
		C1577.71,554.62,1544.69,561.96,1508.43,547.84z"/>
	<linearGradient id="SVGID_2_" gradientUnits="userSpaceOnUse" x1="367.5042" y1="714.0292" x2="619.4002" y2="714.0292">
		<stop  offset="0" style="stop-color:#FFFFFF"/>
		<stop  offset="1" style="stop-color:#000000"/>
	</linearGradient>
	<path class="st1" d="M422.01,841.19c-54.25,1.06-69.32,7.25-37.49-62c20.38-44.35,40.56-88.85,59-134.02
		c14.93-36.57,50.11-43.13,79.77-58.13c5.82-2.95,8.53,3.09,10.85,7.45c16.91,31.91,42.68,54.49,74.25,71.17
		c4.14,2.19,10.04,5.85,10.44,9.37c0.95,8.24-7.88,6.65-12.72,8.66c-46.98,19.49-92.33,40.82-122.04,85.45
		c-7.6,11.41-12.04,19.59-4.16,33.25c13.21,22.91,4.23,36.95-23.03,38.65C445.3,841.76,433.63,841.16,422.01,841.19z"/>
	<linearGradient id="SVGID_3_" gradientUnits="userSpaceOnUse" x1="922.5319" y1="736.4984" x2="1082.8043" y2="736.4984">
		<stop  offset="0" style="stop-color:#FFFFFF"/>
		<stop  offset="1" style="stop-color:#000000"/>
	</linearGradient>
	<path class="st2" d="M1028.5,821.21c-14.92,0-30.16,1.9-44.68-0.51c-15.88-2.63-31.17-8-20.9-31.18
		c8.4-18.96,9.09-37.89-8.67-54.19c-18.61-17.07-18.13-43.61-29.09-64.78c-6.58-12.71,2.98-22.15,15.99-19.88
		c33.79,5.89,67.84,2.27,101.66,4.99c16.93,1.36,14.48,8.73,8.06,19.32c-8.46,13.94-24.49,27.63-18.81,44.17
		c8.41,24.48,15,50.45,32.4,71.33c7.03,8.44,22.2,16.14,16.64,27.49c-4.32,8.81-19.78,2.4-30.23,3.32
		c-7.4,0.65-14.91,0.13-22.37,0.13C1028.5,821.34,1028.5,821.27,1028.5,821.21z"/>
</g>
<g>
	<path class="st3" d="M1180.21,546.51c0.17,0.03,0.3,0.12,0.39,0.27c0.08,0.15,0.14,0.33,0.16,0.54c0.03,0.21,0.03,0.42,0.01,0.66
		c-0.02,0.23-0.04,0.45-0.07,0.64l-0.09,0.62c0.18,0.4,0.41,0.83,0.71,1.3c0.29,0.47,0.64,0.93,1.05,1.36s0.86,0.82,1.37,1.14
		c0.5,0.33,1.06,0.54,1.68,0.63c0.66,0.1,1.3,0.04,1.92-0.19c0.62-0.22,1.21-0.55,1.78-0.99c0.57-0.44,1.11-0.95,1.62-1.55
		c0.51-0.6,0.99-1.22,1.43-1.88c0.44-0.66,0.84-1.32,1.2-1.98c0.36-0.66,0.68-1.28,0.95-1.84c0.27-0.56,0.5-1.05,0.67-1.47
		c0.17-0.42,0.29-0.7,0.36-0.86c0.46-1.12,0.86-2.19,1.22-3.23c0.36-1.03,0.62-2.06,0.77-3.09c0.04-0.25-0.02-0.41-0.17-0.46
		l-4.24,0.55c-0.24,0.03-0.43,0.04-0.57,0.02c-0.42-0.06-0.75-0.24-0.98-0.55c-0.24-0.3-0.32-0.7-0.25-1.2
		c0.07-0.49,0.18-0.88,0.31-1.17c0.14-0.29,0.32-0.49,0.54-0.62c0.22-0.12,0.51-0.19,0.84-0.19c0.34,0,0.74,0.03,1.21,0.1l0.23,0.03
		c0.27-0.02,0.62-0.04,1.04-0.08c0.43-0.04,0.9-0.08,1.42-0.13c0.52-0.05,1.08-0.11,1.67-0.17c0.59-0.06,1.19-0.13,1.79-0.19
		c0.6-0.06,1.2-0.12,1.8-0.18c0.6-0.06,1.16-0.11,1.68-0.16c0.04-0.01,0.15-0.02,0.34-0.03c0.19-0.02,0.41-0.03,0.64-0.05
		c0.24-0.02,0.46-0.03,0.68-0.04c0.21-0.01,0.35-0.01,0.42,0c0.13,0.02,0.25,0.08,0.34,0.17s0.17,0.2,0.23,0.33
		c0.05,0.13,0.09,0.27,0.11,0.42s0.02,0.3,0,0.43c-0.05,0.33-0.22,0.59-0.5,0.8c-0.29,0.2-0.64,0.37-1.04,0.49
		c-0.41,0.12-0.85,0.22-1.33,0.29c-0.48,0.07-0.92,0.14-1.33,0.2c-0.41,0.06-0.77,0.13-1.06,0.2c-0.3,0.07-0.47,0.18-0.52,0.32
		c-0.13,0.47-0.26,1-0.4,1.58c-0.14,0.58-0.29,1.14-0.43,1.67c-0.04,0.13-0.13,0.44-0.28,0.93c-0.15,0.49-0.33,1.09-0.57,1.8
		c-0.23,0.71-0.5,1.47-0.81,2.31c-0.31,0.83-0.64,1.65-0.99,2.45c-0.39,0.87-0.86,1.79-1.42,2.76c-0.56,0.97-1.2,1.9-1.9,2.79
		c-0.71,0.89-1.48,1.71-2.32,2.45c-0.84,0.74-1.71,1.33-2.63,1.75c-0.21,0.09-0.46,0.18-0.74,0.26c-0.28,0.08-0.58,0.14-0.91,0.19
		c-0.33,0.04-0.67,0.06-1.02,0.07c-0.35,0-0.7-0.02-1.04-0.07c-0.57-0.08-1.17-0.25-1.81-0.5c-0.64-0.25-1.27-0.57-1.9-0.95
		c-0.63-0.38-1.22-0.82-1.78-1.31c-0.56-0.49-1.05-1.01-1.46-1.57c-0.41-0.56-0.72-1.14-0.92-1.74c-0.2-0.6-0.26-1.21-0.17-1.82
		c0.07-0.47,0.18-0.87,0.32-1.19c0.14-0.33,0.33-0.58,0.57-0.75s0.54-0.29,0.9-0.34C1179.29,546.42,1179.71,546.44,1180.21,546.51z"
		/>
	<path class="st3" d="M1218.62,552.28c-0.12,0.79-0.47,1.56-1.06,2.33c-0.59,0.76-1.44,1.43-2.57,2c-0.35,0.17-0.77,0.35-1.26,0.54
		c-0.49,0.19-1.02,0.38-1.59,0.56c-0.57,0.18-1.17,0.36-1.79,0.52c-0.62,0.16-1.24,0.29-1.87,0.39c-0.62,0.1-1.23,0.16-1.81,0.19
		c-0.59,0.03-1.13,0.01-1.64-0.07c-0.25-0.04-0.46-0.09-0.64-0.15c-0.17-0.07-0.33-0.16-0.47-0.28c-0.14-0.12-0.27-0.28-0.38-0.48
		c-0.12-0.2-0.24-0.44-0.36-0.73c-0.29,0.16-0.59,0.26-0.89,0.31c-0.3,0.05-0.6,0.05-0.9,0.01l-0.46-0.07
		c-0.09-0.01-0.17-0.06-0.23-0.13c-0.07-0.07-0.13-0.16-0.17-0.25s-0.08-0.2-0.1-0.31c-0.02-0.11-0.02-0.21-0.01-0.31
		c0.08-0.56,0.24-1.08,0.48-1.57c0.23-0.48,0.49-0.96,0.77-1.44c0.44-0.89,0.9-1.82,1.37-2.79c0.47-0.98,0.93-1.96,1.38-2.94
		c0.45-0.99,0.88-1.96,1.29-2.92c0.42-0.96,0.81-1.88,1.17-2.74l0.74-1.84c0-0.03,0.01-0.13,0.02-0.28
		c0.01-0.15,0.02-0.32,0.03-0.51c0.01-0.18,0.02-0.35,0.03-0.51l0.02-0.22l0.12-0.27l-0.02,0.01c0.08-0.19,0.19-0.4,0.33-0.64
		s0.29-0.46,0.47-0.65c0.17-0.2,0.36-0.36,0.55-0.48c0.19-0.12,0.38-0.17,0.58-0.14c0.19,0.03,0.42,0.08,0.71,0.15
		c0.29,0.07,0.54,0.12,0.77,0.16c0.11,0.02,0.22,0.03,0.32,0.03c0.11,0,0.24,0,0.41-0.02c0.17-0.02,0.38-0.05,0.65-0.1
		c0.27-0.04,0.62-0.11,1.06-0.19c0.66-0.13,1.26-0.23,1.8-0.3c0.54-0.07,1.05-0.12,1.53-0.14c0.48-0.02,0.94-0.03,1.38,0
		c0.44,0.02,0.9,0.07,1.36,0.13c0.58,0.09,1.13,0.22,1.66,0.41c0.53,0.19,0.98,0.44,1.37,0.75c0.39,0.31,0.67,0.68,0.87,1.12
		c0.19,0.44,0.25,0.94,0.16,1.51c-0.14,0.97-0.53,1.81-1.16,2.51c-0.63,0.7-1.46,1.32-2.5,1.85c-1.04,0.53-2.26,0.98-3.67,1.36
		c-1.4,0.38-2.96,0.73-4.66,1.05c1.26,0.39,2.34,0.79,3.24,1.19c0.9,0.41,1.62,0.84,2.18,1.29c0.56,0.45,0.95,0.93,1.18,1.43
		C1218.64,551.14,1218.71,551.69,1218.62,552.28z M1213.26,549.94c-0.11-0.04-0.3-0.11-0.58-0.2c-0.28-0.1-0.61-0.21-0.99-0.33
		c-0.38-0.12-0.79-0.25-1.23-0.39c-0.44-0.14-0.85-0.27-1.25-0.4c-0.39-0.13-0.75-0.25-1.08-0.37c-0.32-0.12-0.56-0.21-0.71-0.27
		c-0.62,1.29-1.17,2.52-1.66,3.71c-0.5,1.18-0.99,2.38-1.49,3.58l1.07,0.28c0.25,0.06,0.47,0.11,0.66,0.15
		c0.19,0.05,0.3,0.07,0.33,0.08c0.44,0.02,0.94,0.01,1.48-0.04c0.54-0.05,1.11-0.13,1.7-0.23c0.59-0.11,1.2-0.25,1.82-0.42
		c0.62-0.17,1.23-0.36,1.83-0.58c0.23-0.1,0.47-0.23,0.73-0.38c0.26-0.15,0.5-0.33,0.71-0.52c0.22-0.2,0.41-0.41,0.57-0.65
		c0.16-0.23,0.25-0.48,0.29-0.75c0.06-0.44-0.11-0.85-0.52-1.24C1214.53,550.56,1213.97,550.23,1213.26,549.94z M1208.64,545.37
		c0.64-0.11,1.32-0.24,2.04-0.41c0.72-0.17,1.46-0.36,2.22-0.57c0.76-0.21,1.54-0.44,2.33-0.69c0.79-0.25,1.58-0.5,2.37-0.75
		l-0.02,0c0.28-0.1,0.57-0.24,0.86-0.4c0.29-0.17,0.55-0.35,0.79-0.56c0.24-0.21,0.44-0.43,0.6-0.67s0.27-0.48,0.3-0.74
		c0.02-0.16,0.01-0.33-0.04-0.51c-0.05-0.18-0.15-0.34-0.3-0.5c-0.14-0.16-0.35-0.29-0.6-0.41c-0.26-0.12-0.58-0.2-0.98-0.26
		c-0.55-0.08-1.18-0.1-1.89-0.07c-0.71,0.04-1.4,0.11-2.08,0.22c-0.68,0.11-1.29,0.26-1.83,0.44s-0.91,0.37-1.11,0.58
		c-0.04,0.05-0.11,0.16-0.19,0.34c-0.09,0.18-0.19,0.37-0.3,0.59s-0.22,0.42-0.33,0.61c-0.11,0.2-0.21,0.34-0.31,0.42
		c-0.04,0.11-0.11,0.27-0.21,0.48c-0.1,0.21-0.22,0.47-0.36,0.76c-0.14,0.29-0.29,0.62-0.46,0.97
		C1208.99,544.61,1208.82,544.98,1208.64,545.37z"/>
</g>
<g>
	<path class="st4" d="M187.35,955.31c0,11.8-2.36,22.39-7.08,31.77c-4.72,9.38-11.08,17.34-19.08,23.9
		c-8,6.56-17.18,11.57-27.54,15.05c-10.36,3.47-21.18,5.21-32.46,5.21c-11.15,0-21.87-1.77-32.16-5.31
		c-10.3-3.54-19.38-8.62-27.24-15.25c-7.87-6.62-14.16-14.59-18.88-23.9c-4.72-9.31-7.08-19.8-7.08-31.47
		c0-11.93,2.42-22.62,7.28-32.06c4.85-9.44,11.34-17.41,19.47-23.9c8.13-6.49,17.44-11.44,27.93-14.85
		c10.49-3.41,21.44-5.11,32.85-5.11c11.02,0,21.6,1.8,31.77,5.41c10.16,3.61,19.11,8.72,26.85,15.34c7.74,6.62,13.9,14.62,18.49,24
		C185.06,933.5,187.35,943.9,187.35,955.31z M157.65,955.31c0-7.74-1.48-14.82-4.43-21.24c-2.95-6.42-6.98-11.93-12.1-16.52
		c-5.11-4.59-11.08-8.16-17.9-10.72c-6.82-2.56-14.16-3.84-22.03-3.84c-7.74,0-14.98,1.28-21.74,3.84
		c-6.76,2.56-12.66,6.13-17.7,10.72c-5.05,4.59-9.02,10.1-11.9,16.52c-2.89,6.43-4.33,13.51-4.33,21.24
		c0,7.74,1.44,14.79,4.33,21.15c2.88,6.36,6.85,11.87,11.9,16.52c5.05,4.66,10.95,8.26,17.7,10.82c6.75,2.56,14,3.83,21.74,3.83
		c7.87,0,15.21-1.28,22.03-3.83c6.82-2.56,12.79-6.13,17.9-10.72c5.11-4.59,9.15-10.1,12.1-16.52
		C156.17,970.13,157.65,963.04,157.65,955.31z"/>
	<path class="st4" d="M355.13,889.02c-2.89,0.66-4.69,1.51-5.41,2.56c-0.72,1.05-1.08,2.82-1.08,5.31v80.65
		c0,5.51-0.26,10.2-0.79,14.06c-0.53,3.87-1.31,7.28-2.36,10.23c-1.05,2.95-2.49,5.58-4.33,7.87c-1.84,2.3-4,4.49-6.49,6.59
		c-10.62,8.26-24.72,12.39-42.29,12.39c-7.35,0-13.7-0.56-19.08-1.67c-5.38-1.11-10.13-2.16-14.26-3.15s-7.8-1.64-11.02-1.97
		c-3.21-0.33-6.39,0.29-9.54,1.87l-4.52-2.16l14.16-35.01l4.52,1.57c0,3.28,1.28,5.9,3.84,7.87c2.56,1.97,5.15,3.61,7.77,4.92
		c8.13,3.67,17.05,5.51,26.75,5.51c9.31,0,16-2.07,20.06-6.2c4.06-4.13,6.1-11.11,6.1-20.95v-82.42c0-2.62-0.39-4.43-1.18-5.41
		c-0.79-0.98-2.56-1.8-5.31-2.46v-4.92h44.45V889.02z"/>
	<path class="st4" d="M512.41,963.85c0,10.39-2.08,19.71-6.23,27.96c-4.15,8.25-9.75,15.26-16.79,21.03
		c-7.04,5.77-15.12,10.19-24.23,13.24c-9.12,3.06-18.64,4.59-28.56,4.59c-9.81,0-19.24-1.56-28.3-4.67
		c-9.06-3.12-17.05-7.59-23.97-13.42c-6.92-5.83-12.46-12.84-16.62-21.03c-4.15-8.19-6.23-17.42-6.23-27.7
		c0-10.5,2.13-19.91,6.4-28.21c4.27-8.31,9.98-15.32,17.14-21.03c7.15-5.71,15.35-10.07,24.58-13.07c9.23-3,18.87-4.5,28.91-4.5
		c9.69,0,19.01,1.59,27.96,4.76c8.94,3.18,16.82,7.68,23.63,13.5c6.81,5.83,12.23,12.87,16.27,21.12
		C510.39,944.67,512.41,953.81,512.41,963.85z M486.27,963.85c0-6.81-1.3-13.04-3.9-18.69c-2.6-5.65-6.15-10.5-10.65-14.54
		c-4.5-4.04-9.75-7.18-15.75-9.43c-6-2.25-12.46-3.38-19.39-3.38c-6.81,0-13.19,1.13-19.13,3.38c-5.94,2.25-11.14,5.4-15.58,9.43
		c-4.44,4.04-7.94,8.89-10.47,14.54c-2.54,5.66-3.81,11.89-3.81,18.69c0,6.81,1.27,13.01,3.81,18.61
		c2.54,5.6,6.03,10.45,10.47,14.54c4.44,4.1,9.63,7.27,15.58,9.52c5.94,2.25,12.32,3.38,19.13,3.38c6.92,0,13.39-1.13,19.39-3.38
		c6-2.25,11.25-5.39,15.75-9.43c4.5-4.04,8.05-8.88,10.65-14.54C484.97,976.89,486.27,970.66,486.27,963.85z"/>
	<path class="st4" d="M633.06,977.87H609c-2.31,0-4.01,0.12-5.11,0.35c-1.1,0.23-2.05,1.44-2.86,3.64h-3.98V952.6h4.15
		c0.46,2.08,1.3,3.29,2.51,3.63c1.21,0.35,2.97,0.52,5.28,0.52h57.99v4.33c-2.31,0.23-4.24,0.87-5.8,1.9
		c-1.56,1.04-2.34,3.06-2.34,6.06v30.12c0,4.73,2.02,7.1,6.06,7.1v4.85c-4.39,3.23-9.32,6.03-14.8,8.39
		c-5.48,2.37-11.22,4.36-17.22,5.97c-6,1.62-12.09,2.83-18.26,3.64c-6.17,0.81-12.15,1.21-17.92,1.21c-9.69,0-18.93-1.47-27.7-4.41
		c-8.77-2.94-16.53-7.24-23.28-12.9c-6.75-5.65-12.12-12.61-16.1-20.86c-3.98-8.25-5.97-17.68-5.97-28.3
		c0-10.62,2.1-20.05,6.32-28.3c4.21-8.25,9.84-15.17,16.88-20.77c7.04-5.6,15.12-9.84,24.23-12.72c9.11-2.88,18.58-4.33,28.39-4.33
		c8.31,0,16.76,1.01,25.36,3.03c8.6,2.02,16.76,4.3,24.49,6.84c1.73,0.58,3.09,0.69,4.07,0.35c0.98-0.35,1.76-0.92,2.34-1.73
		l4.33,1.9l-15.58,30.29l-3.98-1.9c0.35-1.96-0.23-3.72-1.73-5.28c-1.5-1.56-3.23-2.97-5.19-4.24c-5.54-3.12-11.4-5.25-17.57-6.41
		c-6.17-1.15-12.32-1.73-18.44-1.73c-6.58,0-12.67,1.07-18.26,3.2c-5.6,2.14-10.47,5.19-14.63,9.17c-4.15,3.98-7.39,8.77-9.69,14.37
		c-2.31,5.6-3.46,11.8-3.46,18.61c0,6.92,1.38,13.16,4.15,18.69s6.46,10.24,11.08,14.11c4.61,3.87,9.87,6.84,15.75,8.92
		s11.94,3.12,18.18,3.12c6,0,11.74-0.69,17.22-2.08c5.48-1.38,10.53-3.4,15.15-6.06V977.87z"/>
	<path class="st4" d="M827.44,963.85c0,10.39-2.08,19.71-6.23,27.96c-4.15,8.25-9.75,15.26-16.79,21.03
		c-7.04,5.77-15.12,10.19-24.23,13.24c-9.12,3.06-18.64,4.59-28.56,4.59c-9.81,0-19.24-1.56-28.3-4.67
		c-9.06-3.12-17.05-7.59-23.97-13.42c-6.92-5.83-12.46-12.84-16.62-21.03c-4.15-8.19-6.23-17.42-6.23-27.7
		c0-10.5,2.13-19.91,6.4-28.21c4.27-8.31,9.98-15.32,17.14-21.03c7.15-5.71,15.35-10.07,24.58-13.07c9.23-3,18.87-4.5,28.91-4.5
		c9.69,0,19.01,1.59,27.96,4.76c8.94,3.18,16.82,7.68,23.63,13.5c6.81,5.83,12.23,12.87,16.27,21.12
		C825.42,944.67,827.44,953.81,827.44,963.85z M801.31,963.85c0-6.81-1.3-13.04-3.9-18.69c-2.6-5.65-6.15-10.5-10.65-14.54
		c-4.5-4.04-9.75-7.18-15.75-9.43c-6-2.25-12.46-3.38-19.39-3.38c-6.81,0-13.19,1.13-19.13,3.38c-5.94,2.25-11.14,5.4-15.58,9.43
		c-4.44,4.04-7.94,8.89-10.47,14.54c-2.54,5.66-3.81,11.89-3.81,18.69c0,6.81,1.27,13.01,3.81,18.61
		c2.54,5.6,6.03,10.45,10.47,14.54c4.44,4.1,9.63,7.27,15.58,9.52c5.94,2.25,12.32,3.38,19.13,3.38c6.92,0,13.39-1.13,19.39-3.38
		c6-2.25,11.25-5.39,15.75-9.43c4.5-4.04,8.05-8.88,10.65-14.54C800.01,976.89,801.31,970.66,801.31,963.85z"/>
	<path class="st4" d="M1039.05,954.91c0,8.65-1.28,17.28-3.84,25.87c-2.56,8.59-7.05,16.26-13.47,23.01
		c-6.43,6.75-15.12,12.23-26.06,16.42c-10.95,4.2-24.75,6.29-41.41,6.29h-73.57v-4.92c2.49-0.65,4.23-1.47,5.21-2.46
		c0.98-0.98,1.48-2.85,1.48-5.61V897.08c0-2.75-0.46-4.65-1.38-5.7c-0.92-1.05-2.69-1.83-5.31-2.36v-4.92h75.53
		c15.87,0,29.11,2.07,39.73,6.2c10.62,4.13,19.11,9.54,25.47,16.23c6.36,6.69,10.88,14.26,13.57,22.72
		C1037.71,937.7,1039.05,946.26,1039.05,954.91z M1006.79,954.91c0-16.26-4.52-28.26-13.57-36c-9.05-7.74-21.64-11.61-37.77-11.61
		h-36.78v95.4h36.78c9.44,0,17.44-1.21,24-3.64c6.56-2.42,11.83-5.8,15.83-10.13c4-4.33,6.92-9.41,8.75-15.24
		C1005.88,967.86,1006.79,961.6,1006.79,954.91z"/>
	<path class="st4" d="M1081.8,999.74l-4.79,13.22c-2.54,5.29-1.21,8.43,3.96,9.42v4.13H1040v-4.13c3.08-0.77,5.45-2.29,7.1-4.54
		c1.65-2.26,3.08-4.65,4.3-7.19l37.67-90.55c0.44-0.88,0.74-1.76,0.91-2.64c0.17-0.88,0.11-1.74-0.17-2.56
		c-0.28-0.83-0.85-1.57-1.73-2.23c-0.88-0.66-2.15-1.21-3.8-1.65v-4.13h58.66v4.13c-1.87,0.44-3.25,1.02-4.13,1.74
		c-0.88,0.72-1.43,1.49-1.65,2.31c-0.22,0.83-0.22,1.71,0,2.64c0.22,0.94,0.55,1.85,0.99,2.73l37.51,90.22
		c1.21,2.54,2.64,4.93,4.3,7.19c1.65,2.26,4.02,3.77,7.1,4.54v4.13h-40.98v-4.13c2.53-0.55,4.24-1.57,5.12-3.06
		c0.88-1.49,0.66-3.61-0.66-6.36l-5.12-13.22H1081.8z M1117.32,927.37h-7.6l-20.98,54.2h49.73L1117.32,927.37z"/>
	<path class="st4" d="M1383.87,986.58c0,8-1.8,14.59-5.41,19.77c-3.61,5.18-8.23,9.25-13.87,12.2c-5.64,2.95-11.93,5.02-18.88,6.2
		c-6.95,1.18-13.84,1.77-20.65,1.77h-87.93v-4.92c2.62-0.65,4.39-1.47,5.31-2.46c0.92-0.98,1.38-2.85,1.38-5.61V896.88
		c0-2.62-0.46-4.43-1.38-5.41c-0.92-0.98-2.69-1.8-5.31-2.46v-4.92h88.91c5.9,0,11.87,0.62,17.9,1.87
		c6.03,1.25,11.51,3.28,16.42,6.1c4.92,2.82,8.95,6.59,12.1,11.31c3.15,4.72,4.72,10.62,4.72,17.7c0,6.43-1.38,12.13-4.13,17.11
		c-2.75,4.99-7.15,9.25-13.18,12.79v1.18c3.28,1.05,6.39,2.63,9.34,4.72c2.95,2.1,5.51,4.62,7.67,7.57
		c2.16,2.95,3.87,6.29,5.11,10.03C1383.24,978.22,1383.87,982.25,1383.87,986.58z M1345.51,923.05c-0.13-6.16-2.36-10.23-6.69-12.2
		s-10.56-2.95-18.69-2.95h-45.04v32.26h50.55c6.42,0,11.41-1.31,14.95-3.93C1344.13,933.6,1345.77,929.21,1345.51,923.05z
		 M1349.44,983.43c0.13-4.33-0.62-7.8-2.26-10.42c-1.64-2.62-3.84-4.65-6.59-6.1c-2.75-1.44-5.87-2.39-9.34-2.85
		c-3.48-0.46-6.92-0.69-10.33-0.69h-45.83v38.95h41.5c3.54,0,7.21-0.2,11.02-0.59c3.8-0.39,7.28-1.25,10.42-2.56
		c3.15-1.31,5.77-3.21,7.87-5.7C1348,990.98,1349.18,987.63,1349.44,983.43z"/>
	<path class="st4" d="M1532.39,966.7c0,9.91-1.98,18.81-5.95,26.68c-3.97,7.88-9.31,14.57-16.03,20.08
		c-6.72,5.51-14.43,9.72-23.13,12.64c-8.7,2.92-17.79,4.38-27.26,4.38c-9.36,0-18.37-1.49-27.02-4.46
		c-8.65-2.97-16.27-7.24-22.88-12.8c-6.61-5.56-11.9-12.25-15.86-20.08c-3.97-7.82-5.95-16.63-5.95-26.44
		c0-10.02,2.04-19,6.11-26.93c4.07-7.93,9.53-14.62,16.36-20.08c6.83-5.45,14.65-9.61,23.46-12.47c8.81-2.86,18.01-4.3,27.59-4.3
		c9.25,0,18.15,1.51,26.68,4.54c8.54,3.03,16.05,7.33,22.55,12.89c6.5,5.56,11.67,12.28,15.53,20.16
		C1530.46,948.39,1532.39,957.12,1532.39,966.7z M1507.44,966.7c0-6.5-1.24-12.45-3.72-17.84c-2.48-5.4-5.87-10.02-10.16-13.88
		c-4.3-3.86-9.31-6.86-15.04-9.01c-5.73-2.15-11.9-3.22-18.51-3.22c-6.5,0-12.59,1.07-18.26,3.22c-5.67,2.15-10.63,5.15-14.87,9.01
		c-4.24,3.86-7.58,8.48-10,13.88c-2.42,5.4-3.64,11.35-3.64,17.84c0,6.5,1.21,12.42,3.64,17.76c2.42,5.34,5.75,9.97,10,13.88
		c4.24,3.91,9.2,6.94,14.87,9.09c5.67,2.15,11.76,3.22,18.26,3.22c6.61,0,12.78-1.07,18.51-3.22c5.73-2.15,10.74-5.15,15.04-9
		c4.3-3.85,7.68-8.48,10.16-13.88C1506.2,979.15,1507.44,973.2,1507.44,966.7z"/>
	<path class="st4" d="M1639.3,1030.48h-4.13c-0.44-1.65-1.1-2.73-1.98-3.22c-0.88-0.5-2.42-0.74-4.63-0.74h-87.9v-4.13
		c2.09-0.55,3.55-1.24,4.38-2.07c0.83-0.83,1.24-2.34,1.24-4.54v-97.98c0-2.2-0.47-3.74-1.4-4.63c-0.94-0.88-2.34-1.6-4.21-2.15
		v-4.13h37.67v4.13c-2.2,0.55-3.63,1.24-4.3,2.07c-0.66,0.83-0.99,2.4-0.99,4.71v87.41h55.52c2.2,0,3.74-0.44,4.63-1.32
		c0.88-0.88,1.54-2.37,1.98-4.46h4.13V1030.48z"/>
	<path class="st4" d="M1765.53,989c0,5.07-0.97,9.56-2.89,13.47c-1.93,3.91-4.52,7.38-7.77,10.41c-3.25,3.03-6.97,5.59-11.15,7.68
		c-4.19,2.09-8.57,3.77-13.14,5.04c-4.57,1.27-9.17,2.2-13.8,2.81c-4.63,0.6-8.92,0.91-12.89,0.91c-8.48,0-16.77-0.66-24.87-1.98
		c-8.1-1.32-16-3.8-23.71-7.44c-1.65-0.77-3.17-1.16-4.54-1.16c-1.38,0-2.67,0.77-3.88,2.31l-4.79-1.98l13.05-29.58l4.63,1.65
		c-0.33,1.1-0.39,2.21-0.17,3.3c0.22,1.1,0.88,2.09,1.98,2.97c2.42,1.87,5.45,3.47,9.09,4.79c3.64,1.32,7.46,2.4,11.48,3.22
		c4.02,0.83,8.01,1.46,11.98,1.9c3.97,0.44,7.49,0.66,10.58,0.66c2.31,0,5.29-0.19,8.92-0.58c3.64-0.38,7.16-1.13,10.58-2.23
		c3.41-1.1,6.36-2.7,8.84-4.79c2.48-2.09,3.72-4.79,3.72-8.1c0-3.85-2.51-6.99-7.52-9.42c-5.01-2.42-12.64-3.91-22.88-4.46
		c-4.08-0.11-8.34-0.27-12.81-0.5c-4.46-0.22-8.92-0.66-13.38-1.32s-8.76-1.68-12.89-3.06c-4.13-1.38-7.85-3.33-11.15-5.87
		c-3.63-2.75-6.31-6.14-8.01-10.16c-1.71-4.02-2.56-8.51-2.56-13.47c0-5.95,1.35-11.4,4.05-16.36c2.7-4.96,6.53-9.17,11.48-12.64
		c4.96-3.47,10.88-6.17,17.76-8.1c6.88-1.93,14.57-2.89,23.05-2.89c6.94,0,14.26,0.66,21.98,1.98c7.71,1.32,15.7,3.75,23.96,7.27
		c2.97,1.43,5.23,2.23,6.77,2.4c1.54,0.17,3.25-0.47,5.12-1.9l3.8,1.98l-14.87,28.58l-4.46-2.15c0-2.31-0.83-4.35-2.48-6.11
		c-2.31-2.2-5.12-4.05-8.43-5.54c-3.3-1.49-6.77-2.7-10.41-3.63c-3.63-0.93-7.27-1.6-10.91-1.98c-3.63-0.38-7-0.58-10.08-0.58
		c-2.2,0-4.99,0.19-8.34,0.58c-3.36,0.39-6.58,1.16-9.67,2.31c-3.08,1.16-5.73,2.73-7.93,4.71c-2.21,1.98-3.3,4.57-3.3,7.77
		c0,2.97,0.83,5.4,2.48,7.27c1.65,1.87,3.69,3.33,6.11,4.38c2.42,1.05,4.98,1.76,7.68,2.15c2.7,0.39,5.15,0.63,7.35,0.74
		c8.04,0.55,15.64,1.02,22.8,1.41c7.16,0.39,14.15,1.63,20.98,3.72c3.41,1.21,6.66,2.73,9.75,4.54c3.08,1.82,5.78,3.97,8.1,6.44
		c2.31,2.48,4.16,5.29,5.54,8.43C1764.84,981.98,1765.53,985.37,1765.53,989z"/>
	<path class="st4" d="M1802.71,999.74l-4.79,13.22c-2.54,5.29-1.21,8.43,3.96,9.42v4.13h-40.98v-4.13c3.08-0.77,5.45-2.29,7.1-4.54
		c1.65-2.26,3.08-4.65,4.3-7.19l37.67-90.55c0.44-0.88,0.74-1.76,0.91-2.64c0.17-0.88,0.11-1.74-0.17-2.56
		c-0.28-0.83-0.85-1.57-1.73-2.23c-0.88-0.66-2.15-1.21-3.8-1.65v-4.13h58.66v4.13c-1.87,0.44-3.25,1.02-4.13,1.74
		c-0.88,0.72-1.43,1.49-1.65,2.31c-0.22,0.83-0.22,1.71,0,2.64c0.22,0.94,0.55,1.85,0.99,2.73l37.51,90.22
		c1.21,2.54,2.64,4.93,4.3,7.19c1.65,2.26,4.02,3.77,7.1,4.54v4.13h-40.98v-4.13c2.53-0.55,4.24-1.57,5.12-3.06
		c0.88-1.49,0.66-3.61-0.66-6.36l-5.12-13.22H1802.71z M1838.23,927.37h-7.6l-20.98,54.2h49.73L1838.23,927.37z"/>
</g>
</svg>
